<svg version="1.2" xmlns="http://www.w3.org/2000/svg" viewBox="0 0 128 128" width="128" height="128">
	<title>puzzle-piece_2-svg (1)-svg</title>
	<style>
		.s0 { fill: none;stroke: #ffffff;stroke-miterlimit:100;stroke-width: 8 } 
	</style>
	<g id="Layer">
		<path id="Layer" class="s0" d="m49 4c-4.1 0-8.3 1.5-10.9 4.1-2.6 2.6-4.1 6.8-4.1 10.9 0 4.1 2.6 7.1 4.1 10.9 0.4 0.7 0.4 2.2 0.4 4.1h-34.5v90h32.3c0-1.9 0-3.4-0.4-4.1-1.5-3.8-4.1-6.8-4.1-10.9 0-4.1 1.5-8.3 4.1-10.9 2.7-2.6 6.8-4.1 10.9-4.1 4.1 0 8.3 1.5 10.9 4.1 2.6 2.6 4.1 6.8 4.1 10.9 0 4.1-2.6 7.1-4.1 10.9-0.4 0.7-0.4 2.2-0.4 4.1h36.7v-34.5c1.9 0 3.4 0 4.1 0.4 3.8 1.5 6.8 4.1 10.9 4.1 4.1 0 8.2-1.5 10.9-4.1 2.6-2.7 4.1-6.8 4.1-10.9 0-4.1-1.5-8.3-4.1-10.9-2.7-2.6-6.8-4.1-10.9-4.1-4.1 0-7.1 2.6-10.9 4.1-0.7 0.4-2.2 0.4-4.1 0.4v-34.5h-34.5c0-1.9 0-3.4 0.4-4.1 1.5-3.8 4.1-6.8 4.1-10.9 0-4.1-1.5-8.3-4.1-10.9-2.7-2.6-6.8-4.1-10.9-4.1z"/>
	</g>
</svg>