<svg version="1.2" xmlns="http://www.w3.org/2000/svg" viewBox="0 0 16 16" width="16" height="16">
	<title>puzzle-piece_2-svg (1)-svg</title>
	<style>
		.s0 { fill: #ffffff } 
		.s1 { fill: #b2b2b2 } 
	</style>
	<path id="Layer" class="s0" d="m6.1 0.5c-0.5 0-1 0.2-1.3 0.5-0.4 0.3-0.5 0.9-0.5 1.4 0 0.5 0.3 0.9 0.5 1.3 0 0.1 0 0.3 0 0.6h-4.3v11.2h4c0-0.2 0-0.4 0-0.5-0.2-0.5-0.5-0.9-0.5-1.4 0-0.5 0.2-1 0.5-1.3 0.3-0.4 0.8-0.5 1.4-0.5 0.5 0 1 0.1 1.3 0.5 0.3 0.3 0.5 0.8 0.5 1.3 0 0.5-0.3 0.9-0.5 1.4 0 0.1 0 0.3 0 0.5h4.6v-4.3c0.2 0 0.4 0 0.5 0 0.4 0.2 0.8 0.6 1.3 0.6 0.5 0 1.1-0.2 1.4-0.6 0.3-0.3 0.5-0.8 0.5-1.3 0-0.5-0.2-1.1-0.5-1.4-0.3-0.3-0.9-0.5-1.4-0.5-0.5 0-0.9 0.3-1.3 0.5-0.1 0.1-0.3 0.1-0.5 0.1v-4.3h-4.4c0-0.3 0-0.5 0.1-0.6 0.2-0.4 0.5-0.8 0.5-1.3 0-0.5-0.2-1.1-0.5-1.4-0.3-0.3-0.9-0.5-1.4-0.5z"/>
	<path id="Layer copy" class="s1" d="m6.1 0.5c-0.5 0-1 0.2-1.3 0.5-0.4 0.3-0.5 0.9-0.5 1.4 0 0.5 0.3 0.9 0.5 1.3 0 0.1 0 0.3 0 0.6h-4.3v11.2h4c0-0.2 0-0.4 0-0.5-0.2-0.5-0.5-0.9-0.5-1.4 0-0.5 0.2-1 0.5-1.3 0.3-0.4 0.8-0.5 1.4-0.5 0.5 0 1 0.1 1.3 0.5 0.3 0.3 0.5 0.8 0.5 1.3 0 0.5-0.3 0.9-0.5 1.4 0 0.1 0 0.3 0 0.5h4.6v-4.3c0.2 0 0.4 0 0.5 0 0.4 0.2 0.8 0.6 1.3 0.6 0.5 0 1.1-0.2 1.4-0.6 0.3-0.3 0.5-0.8 0.5-1.3 0-0.5-0.2-1.1-0.5-1.4-0.3-0.3-0.9-0.5-1.4-0.5-0.5 0-0.9 0.3-1.3 0.5-0.1 0.1-0.3 0.1-0.5 0.1v-4.3h-4.4c0-0.3 0-0.5 0.1-0.6 0.2-0.4 0.5-0.8 0.5-1.3 0-0.5-0.2-1.1-0.5-1.4-0.3-0.3-0.9-0.5-1.4-0.5z"/>
</svg>